<svg xmlns="http://www.w3.org/2000/svg" width="33" height="30" fill="none"><path fill="#fff" stroke="#fff" stroke-width=".8" d="M31.293 4.117H12.88c-.525 0-.952.524-.952 1.168 0 .507.266.936.635 1.097v4.745c0 .215.142.39.317.39h7.301c.176 0 .318-.175.318-.39V6.454h10.793c.175 0 .317-.175.317-.39V4.506c0-.215-.142-.39-.317-.39zm-11.428 6.62h-1.27V8.012c0-.215-.142-.39-.317-.39s-.318.175-.318.39v2.727h-.635V8.01c0-.215-.142-.39-.317-.39s-.318.175-.318.39v2.727h-.635V8.01c0-.215-.141-.39-.317-.39-.175 0-.317.175-.317.39v2.727h-.635V8.01c0-.215-.142-.39-.318-.39-.175 0-.317.175-.317.39v2.727h-.953V6.454h6.667zm11.11-5.062H12.881c-.175 0-.317-.175-.317-.39 0-.214.142-.39.317-.39h18.094z"/><path fill="#fff" stroke="#fff" stroke-width=".8" d="M26.1 14.63h-1.003a4 4 0 0 0-.035-.393c.014 0 .026.004.04.004.962 0 1.746-.96 1.746-2.142 0-.688-.267-1.319-.713-1.719a2.5 2.5 0 0 0 .078-.618c0-1.18-.784-2.141-1.746-2.141-.918 0-1.673.873-1.74 1.978-.903.184-1.593 1.148-1.593 2.305q0 .122.01.242a3.4 3.4 0 0 1-1.008-.15 2.1 2.1 0 0 0-.624-.092c-.872 0-1.624.564-2.029 1.415-.404-.85-1.156-1.415-2.028-1.415a2.1 2.1 0 0 0-.624.091c-.654.2-1.343.2-1.997 0a2.1 2.1 0 0 0-.623-.09c-.873 0-1.625.563-2.029 1.414-.404-.85-1.156-1.415-2.028-1.415a2.1 2.1 0 0 0-.624.091c-.654.2-1.344.2-1.997 0a2.1 2.1 0 0 0-.624-.09c-1.268 0-2.283 1.19-2.34 2.726H1.565C.978 14.63.5 15.217.5 15.938v11.795c0 .72.478 1.307 1.066 1.307h24.533c.588 0 1.066-.587 1.066-1.307V15.938c0-.72-.478-1.307-1.065-1.307zm-3.076-4.283.03.002c.09 0 .177-.047.237-.13a.45.45 0 0 0 .08-.303l-.008-.067q-.006-.043-.007-.087c0-.751.498-1.363 1.111-1.363s1.111.612 1.111 1.364q0 .305-.121.603c-.078.192-.015.425.141.522.38.234.615.699.615 1.211 0 .752-.498 1.363-1.111 1.363-.294 0-.571-.14-.78-.394a.29.29 0 0 0-.224-.113.3.3 0 0 0-.213.1c-.236.263-.537.407-.847.407-.7 0-1.27-.698-1.27-1.558 0-.853.563-1.548 1.256-1.557zm-3.513 2.336q.25 0 .47.068c.44.135.892.187 1.343.164.308.783.96 1.326 1.714 1.326.375 0 .74-.139 1.052-.396q.129.11.27.19c.065.219.103.45.106.69.02 1.213-.555 2.967-1.061 4.513-.41 1.252-.763 2.332-.763 3.008 0 .482-.155.7-.24.76l-.001-.013v-.126c.003-.775.01-2.388-.567-3.1-.38-.468-1.02-.468-1.4 0-.577.712-.57 2.325-.567 3.1v.139c-.086-.06-.241-.277-.241-.76 0-.675-.354-1.756-.763-3.008-.506-1.546-1.08-3.3-1.062-4.512.018-1.165.753-2.043 1.71-2.043zm-7.3 0q.248 0 .47.068c.753.23 1.55.23 2.304 0q.22-.068.47-.068c.957 0 1.692.879 1.71 2.043.019 1.213-.555 2.966-1.061 4.513-.41 1.251-.763 2.332-.763 3.008 0 .482-.155.7-.241.759v-.139c.003-.775.01-2.387-.568-3.099-.19-.234-.432-.358-.7-.358s-.509.124-.699.358c-.577.712-.57 2.324-.568 3.1v.138c-.085-.06-.24-.277-.24-.76 0-.675-.354-1.755-.763-3.007-.507-1.547-1.08-3.3-1.062-4.513.018-1.165.753-2.043 1.71-2.043zm-7.302 0q.25 0 .47.068c.754.23 1.55.23 2.305 0q.22-.068.47-.068c.957 0 1.692.879 1.71 2.043.019 1.213-.555 2.966-1.062 4.513-.41 1.251-.763 2.332-.763 3.008 0 .482-.155.7-.24.759v-.139c.003-.775.01-2.387-.568-3.099-.19-.234-.432-.358-.7-.358s-.51.124-.7.358c-.576.712-.57 2.324-.567 3.1v.138c-.086-.06-.24-.277-.24-.76 0-.675-.354-1.755-.764-3.007-.506-1.547-1.08-3.3-1.061-4.513.018-1.165.753-2.043 1.71-2.043zm21.621 15.05c0 .29-.193.528-.43.528H1.566c-.238 0-.431-.237-.431-.528V15.938c0-.291.193-.529.43-.529h1.039c.135 1.26.623 2.764 1.067 4.12.369 1.127.717 2.193.717 2.718 0 .973.466 1.555.917 1.555.295 0 .594-.278.594-.809v-.13c-.002-.564-.008-2.063.383-2.546.144-.177.354-.177.499 0 .39.482.385 1.982.382 2.546v.13c0 .531.3.81.595.81.45 0 .916-.582.916-1.556 0-.525.348-1.59.718-2.718.278-.85.573-1.759.79-2.63.216.871.512 1.78.79 2.63.369 1.127.718 2.193.718 2.718 0 .973.466 1.555.916 1.555.295 0 .594-.278.594-.809v-.13c-.002-.564-.008-2.063.383-2.546.144-.177.354-.177.499 0 .39.482.385 1.982.383 2.546v.13c0 .531.298.81.594.81.45 0 .916-.582.916-1.556 0-.525.349-1.59.718-2.718.278-.85.573-1.759.79-2.63.217.871.512 1.78.79 2.63.37 1.127.718 2.193.718 2.718 0 .973.466 1.555.916 1.555.295 0 .595-.278.595-.809v-.13c-.003-.564-.01-2.063.382-2.546.144-.177.355-.177.499 0 .391.482.385 1.982.383 2.546v.13c0 .531.299.81.594.81.45 0 .916-.582.916-1.556 0-.525.349-1.59.718-2.718.444-1.356.932-2.86 1.067-4.12H26.1c.238 0 .431.238.431.529v11.795zM4.468 8.01c.963 0 1.746-.96 1.746-2.142s-.783-2.142-1.746-2.142c-.962 0-1.746.96-1.746 2.142S3.506 8.01 4.468 8.01zm0-3.505c.613 0 1.111.611 1.111 1.363s-.498 1.363-1.111 1.363-1.111-.611-1.111-1.363.498-1.363 1.111-1.363zm4.603.39c.875 0 1.587-.874 1.587-1.948S9.946 1 9.071 1s-1.587.874-1.587 1.947c0 1.074.712 1.947 1.587 1.947zm0-3.116c.525 0 .952.524.952 1.168s-.427 1.169-.952 1.169-.952-.525-.952-1.169.427-1.168.952-1.168z"/></svg>