<svg xmlns="http://www.w3.org/2000/svg" width="33" height="30" fill="none"><path fill="#fff" d="M4.85 24.895c-.297.297-.544.594-.841.89l-.05.05c-.148.1-.148.347 0 .445.1.149.297.1.446 0l.05-.049c.098-.099.247-.198.346-.297.197-.198.346-.396.544-.593a.38.38 0 0 0 .099-.248.38.38 0 0 0-.1-.247.38.38 0 0 0-.247-.1c-.099.1-.148.1-.247.15zm-.544-1.78c-.198.148-.346.346-.544.494l-.149.148-.099.1c-.148.098-.148.296 0 .445.1.148.297.148.446 0h.049s.05 0 .05-.05c.098-.05.197-.148.296-.198.149-.148.297-.297.446-.494.099-.149.148-.297 0-.446a.38.38 0 0 0-.248-.099c-.148 0-.198.05-.247.1m.396-2.474a10 10 0 0 1-.742.692l-.347.347-.148.148a.31.31 0 0 0 0 .445c.099.1.346.149.445 0 .05-.05.099-.099.148-.099.1-.099.248-.198.347-.296.247-.248.495-.545.791-.792.1-.148.149-.346 0-.445a.38.38 0 0 0-.247-.1c-.148 0-.198 0-.247.1m-.495-1.83c-.099 0-.149.049-.198.148-.099.148-.247.296-.346.445-.1.099-.198.247-.297.346-.1.1-.149.198-.297.297-.05.05-.099.05-.099.148-.05.1 0 .149 0 .248a.4.4 0 0 0 .445.148c.198-.099.347-.297.495-.445.247-.247.445-.544.693-.792.05-.05.05-.197.05-.247 0-.099-.05-.148-.15-.198-.049-.05-.098-.05-.197-.05-.05-.098-.1-.049-.1-.049zm-.841-1.683c-.149.148-.297.346-.495.495-.05.099-.148.148-.247.247a.4.4 0 0 0-.1.198c0 .099 0 .148.1.247.099.1.346.149.445 0 .05-.099.148-.148.247-.247l.495-.495a.38.38 0 0 0 .1-.247c0-.099 0-.148-.1-.247a.38.38 0 0 0-.247-.1c-.05.1-.149.1-.198.15zm-.445-1.682a7 7 0 0 1-.841.841c-.149.099-.149.346 0 .445.099.149.296.1.445 0 .099-.099.198-.148.297-.247.198-.198.395-.396.544-.594.05-.05.099-.099.099-.198s-.05-.148-.1-.247a.38.38 0 0 0-.246-.099c-.05 0-.149.05-.198.099m-.742-1.435-.396.396-.198.198a.32.32 0 0 0 .099.445c.148.1.297.05.396-.05.197-.148.346-.345.494-.494a.31.31 0 0 0 0-.445.38.38 0 0 0-.247-.1c0-.049-.099 0-.148.05m-.594-1.533-.297.296c-.148.1-.099.347 0 .446.05.05.148.099.198.099.099 0 .148-.05.198-.1l.297-.296a.31.31 0 0 0 0-.445.38.38 0 0 0-.248-.1c-.05 0-.099.05-.148.1m-.248-1.682c-.098.099-.197.148-.296.247H.99c-.148.099-.198.297-.148.445a.4.4 0 0 0 .445.149c.05 0 .099-.05.099-.1.099-.098.247-.197.346-.247.149-.099.149-.346 0-.445 0-.05-.099-.099-.148-.099-.1 0-.198 0-.248.05zm13.803 2.127c-.099.198-.197.445-.296.643a7 7 0 0 1-.347.89c-.198.545-.396 1.089-.495 1.633-.049.297-.148.643-.197.94a7.4 7.4 0 0 0-.1 1.04c-.049.345-.049.741-.049 1.088 0 .395-.05.742 0 1.137 0 .149.149.347.297.347.198 0 .346-.149.346-.297 0-.297.05-.594.05-.89 0-.248.05-.545.05-.792.049-.544.049-1.089.148-1.633.099-.692.296-1.385.544-2.078.099-.346.247-.692.396-1.039.05-.198.148-.346.198-.544 0-.05.049-.099.049-.148 0-.05 0-.1.05-.1a.34.34 0 0 0-.198-.395h-.1c-.148 0-.296.05-.346.198m7.273-1.682c-.1.099-.247.198-.346.346-.05.05-.1.1-.198.149-.149.098-.1.346 0 .445.05.05.148.099.198.099.099 0 .148-.05.247-.1.198-.148.396-.296.544-.494.148-.099.148-.346 0-.495a.38.38 0 0 0-.247-.099c-.05.05-.149.1-.198.149m.495 1.484-.446.445-.198.198c-.148.1-.148.297 0 .445.1.149.297.149.446 0l.05-.05c.049-.049.148-.098.197-.147.148-.149.297-.248.445-.396.149-.1.149-.347 0-.495a.38.38 0 0 0-.247-.099c-.099 0-.149.05-.247.099m1.038.89a7 7 0 0 1-.643.594l-.346.347a.4.4 0 0 0-.099.197c0 .1.05.149.1.248.049.05.148.099.197.099.099 0 .148-.05.247-.1.05-.049.1-.049.1-.098.098-.1.197-.149.247-.247.198-.198.395-.396.643-.594.148-.1.148-.347 0-.445a.38.38 0 0 0-.248-.1c-.098 0-.148.05-.197.1zm1.04 1.04a8 8 0 0 0-.693.643q-.15.147-.297.296c-.05.05-.099.1-.099.149-.148.099-.148.346 0 .445.099.149.297.1.445 0 .149-.099.248-.247.347-.346.247-.248.494-.495.742-.693.148-.099.148-.346 0-.445a.38.38 0 0 0-.248-.099c-.05-.05-.148-.05-.198.05zm.94 2.325c-.198.198-.396.395-.545.593l-.05.05a.31.31 0 0 0 0 .445c.1.099.347.148.446 0l.148-.148a4.5 4.5 0 0 0 .446-.495c.099-.149.148-.297 0-.445a.38.38 0 0 0-.248-.1c-.099.05-.148.05-.198.1zm-.792-.94c-.149.148-.297.297-.495.445-.099.05-.148.148-.247.198h.05c-.05.05-.1.099-.1.148v.248c.05.148.297.247.446.148.049-.05.148-.099.197-.148.05-.05.149-.1.198-.198.149-.1.248-.248.396-.347s.148-.296 0-.445a.38.38 0 0 0-.247-.099c-.05-.05-.149 0-.198.05m1.88 2.177c-.149.148-.297.346-.445.494a2 2 0 0 0-.297.347.4.4 0 0 0-.1.197c0 .1.05.149.1.248.05.05.148.099.198.099s.198 0 .247-.1c.099-.098.148-.197.247-.296.149-.198.347-.396.495-.544a.4.4 0 0 0 .099-.198c0-.1-.05-.149-.099-.247a.38.38 0 0 0-.247-.1c-.1 0-.149.05-.198.1m.94 1.335c-.149.149-.297.248-.445.396l-.1.099-.049.05c-.099.148-.148.296 0 .445.1.099.346.148.445 0 .248-.149.446-.347.643-.545.149-.148.149-.346 0-.494a.38.38 0 0 0-.247-.1c-.099.05-.198.1-.247.15zm1.187.94c-.05.05-.148.149-.198.248l-.099.099a.4.4 0 0 0-.099.197c0 .1.05.149.1.248.098.099.346.148.445 0l.049-.05.247-.247a.38.38 0 0 0 .1-.247c0-.1-.05-.149-.1-.248a.38.38 0 0 0-.247-.099c-.05 0-.148.05-.198.1zM23.848 9.856a.9.9 0 0 0-.396.099c-.05 0-.1.049-.149.098-.05 0-.05.05-.099.05q-.223.148-.148.445a.4.4 0 0 0 .445.149h.05c.148-.05.297-.1.445-.1h.297c.099 0 .198.05.297.1l.445.296c.297.297.594.594.84.94.446.644.793 1.287 1.139 1.93.198.346.396.693.594.99.247.395.593.79.89 1.187.099.148.346.099.445 0a.4.4 0 0 0 .1-.198c0-.1-.05-.149-.1-.248a.9.9 0 0 0-.198-.247s0 .05.05.05c-.445-.594-.792-1.237-1.138-1.88-.346-.594-.643-1.237-1.039-1.83-.198-.347-.445-.644-.693-.94a3.2 3.2 0 0 0-.89-.743c-.198-.099-.396-.198-.594-.198h-.247c-.148.05-.247.05-.346.05M20.335 1c-.05 0-.099 0-.099.05-.05.049-.099.049-.198.098-.198.149-.396.297-.544.495-.198.198-.445.346-.643.544-.297.149-.544.396-.792.643-.247.248-.544.495-.84.743-.248.148-.446.346-.693.445-.149.099-.297.148-.446.297-.05.05-.148.148-.197.247-.05.05-.05.148-.1.247-.098.248-.148.446-.247.693-.099.346-.198.643-.297.99-.05.148-.099.296-.148.494l-.148.594c0 .148-.05.247 0 .396.049.099.098.247.197.296.149.149.347.198.545.248.247.05.494.099.791.148.297.05.544.149.841.198.346.1.742.198 1.089.1.198-.05.346-.199.445-.298s.198-.198.346-.297c.445-.395.841-.742 1.286-1.088.495-.396.94-.841 1.386-1.237.198-.198.395-.396.643-.593l.742-.743c.05-.049.05-.098.099-.098.05-.05.05-.149.099-.248 0-.099 0-.148.05-.247 0-.1 0-.149-.05-.248-.05-.247-.297-.395-.446-.593-.247-.248-.494-.495-.692-.742l-.742-.742c-.1-.1-.247-.198-.346-.297-.05-.05-.1-.1-.198-.149-.05-.05-.05-.148-.1-.198A.56.56 0 0 0 20.534 1zm-1.732 2.672c.248-.198.545-.347.792-.545s.445-.395.693-.593c.148-.149.346-.248.494-.396l.1.099c.197.247.346.445.544.643l1.038 1.187.05.05c-.05.099-.099.148-.148.247-.594.693-1.237 1.336-1.98 1.88 0 0 .05 0 .05-.05l-1.187.891a3.5 3.5 0 0 0-.495.396c-.148.148-.346.247-.544.346h-.396c-.297-.05-.594-.148-.89-.198-.248-.05-.446-.148-.693-.198a3.2 3.2 0 0 1 .297-.89c.099-.297.198-.594.346-.89V5.7c.099-.198.198-.445.297-.594l.445-.445c.198-.148.396-.346.594-.495h.05c.098-.198.346-.346.544-.494zm3.71.445c0 .05 0 .05-.049.099 0-.05 0-.05.05-.1z"/><path stroke="#fff" stroke-width=".8" d="m22.314 4.117-.05-.05-1.038-1.187c-.198-.198-.347-.396-.545-.643l-.099-.1c-.148.15-.346.248-.494.397-.248.198-.446.395-.693.593s-.544.347-.791.545c-.198.148-.446.296-.545.494m4.255-.05c-.05.1-.099.15-.148.248-.594.693-1.237 1.336-1.98 1.88 0 0 .05 0 .05-.05l-1.187.891a3.5 3.5 0 0 0-.495.396c-.148.148-.346.247-.544.346h-.396c-.297-.05-.594-.148-.89-.198-.248-.05-.446-.148-.693-.198m6.283-3.314c0 .05 0 .05-.05.099 0-.05 0-.05.05-.1zM16.03 7.43a3.2 3.2 0 0 1 .297-.89c.099-.297.198-.594.346-.89v.05c.099-.198.198-.445.297-.594l.445-.445c.198-.148.396-.346.594-.495h.05m-2.03 3.265v-.099m2.03-3.166.049-.05M4.85 24.897c-.297.296-.544.593-.841.89l-.05.05c-.148.098-.148.346 0 .445.1.148.297.099.446 0l.05-.05c.098-.099.247-.198.346-.297.197-.198.346-.396.544-.593a.38.38 0 0 0 .099-.248.38.38 0 0 0-.1-.247.38.38 0 0 0-.247-.1c-.099.1-.148.1-.247.15zm-.544-1.782c-.198.149-.346.347-.544.495l-.149.148-.099.1c-.148.098-.148.296 0 .445.1.148.297.148.446 0h.049s.05 0 .05-.05c.098-.05.197-.148.296-.198.149-.148.297-.297.446-.494.099-.149.148-.297 0-.446a.38.38 0 0 0-.248-.099c-.148 0-.198.05-.247.1zm.396-2.473a10 10 0 0 1-.742.692l-.347.347-.148.148a.31.31 0 0 0 0 .445c.099.1.346.149.445 0 .05-.05.099-.099.148-.099.1-.099.248-.198.347-.296.247-.248.495-.545.791-.792.1-.148.149-.346 0-.445a.38.38 0 0 0-.247-.1c-.148 0-.198 0-.247.1zm-.495-1.83c-.099 0-.149.049-.198.148-.099.148-.247.296-.346.445-.1.099-.198.247-.297.346-.1.1-.149.198-.297.297-.05.05-.099.05-.099.148-.05.1 0 .149 0 .248a.4.4 0 0 0 .445.148c.198-.099.347-.297.495-.445.247-.247.445-.544.693-.792.05-.05.05-.197.05-.247 0-.099-.05-.148-.15-.198-.049-.05-.098-.05-.197-.05-.05-.098-.1-.049-.1-.049zm-.841-1.683c-.149.148-.297.346-.495.495-.05.099-.148.148-.247.247a.4.4 0 0 0-.1.198c0 .099 0 .148.1.247.099.1.346.149.445 0 .05-.099.148-.148.247-.247l.495-.495a.38.38 0 0 0 .1-.247c0-.099 0-.148-.1-.247a.38.38 0 0 0-.247-.1c-.05.1-.149.1-.198.15zm-.445-1.682a7 7 0 0 1-.841.841c-.149.099-.149.346 0 .445.099.149.296.1.445 0 .099-.099.198-.148.297-.247.198-.198.395-.396.544-.594.05-.05.099-.099.099-.198s-.05-.148-.1-.247a.38.38 0 0 0-.246-.099c-.05 0-.149.05-.198.099zm-.742-1.435-.396.396-.198.198a.32.32 0 0 0 .099.445c.148.1.297.05.396-.05.197-.148.346-.345.494-.494a.31.31 0 0 0 0-.445.38.38 0 0 0-.247-.1c0-.049-.099 0-.148.05zm-.594-1.533-.297.296c-.148.1-.099.347 0 .446.05.05.148.099.198.099.099 0 .148-.05.198-.1l.297-.296a.31.31 0 0 0 0-.445.38.38 0 0 0-.248-.1c-.05 0-.099.05-.148.1zm-.248-1.682c-.098.099-.197.148-.296.247H.99c-.148.099-.198.297-.148.445a.4.4 0 0 0 .445.149c.05 0 .099-.05.099-.1.099-.098.247-.197.346-.247.149-.099.149-.346 0-.445 0-.05-.099-.099-.148-.099-.1 0-.198 0-.248.05zm-.247.247q-.075 0 0 0zm14.05 1.88c-.099.198-.197.445-.296.643a7 7 0 0 1-.347.89c-.198.545-.396 1.089-.495 1.633-.049.297-.148.643-.197.94a7.4 7.4 0 0 0-.1 1.04c-.049.345-.049.741-.049 1.088 0 .395-.05.742 0 1.137 0 .149.149.347.297.347.198 0 .346-.149.346-.297 0-.297.05-.594.05-.89 0-.248.05-.545.05-.792.049-.544.049-1.089.148-1.633.099-.692.296-1.385.544-2.078.099-.346.247-.692.396-1.039.05-.198.148-.346.198-.544 0-.05.049-.099.049-.148 0-.05 0-.1.05-.1a.34.34 0 0 0-.198-.395h-.1c-.148 0-.296.05-.346.198zm7.273-1.682c-.1.099-.247.198-.346.346-.05.05-.1.1-.198.149-.149.098-.1.346 0 .445.05.05.148.099.198.099.099 0 .148-.05.247-.1.198-.148.396-.296.544-.494.148-.099.148-.346 0-.495a.38.38 0 0 0-.247-.099c-.05.05-.149.1-.198.149zm.495 1.484-.446.445-.198.198c-.148.1-.148.297 0 .445.1.149.297.149.446 0l.05-.05c.049-.049.148-.098.197-.147.148-.149.297-.248.445-.396.149-.1.149-.347 0-.495a.38.38 0 0 0-.247-.099c-.099 0-.149.05-.247.099zm1.038.89a7 7 0 0 1-.643.594l-.346.347a.4.4 0 0 0-.099.197c0 .1.05.149.1.248.049.05.148.099.197.099.099 0 .148-.05.247-.1.05-.049.1-.049.1-.098.098-.1.197-.149.247-.247.198-.198.395-.396.643-.594.148-.1.148-.347 0-.445a.38.38 0 0 0-.248-.1c-.098 0-.148.05-.197.1zm1.04 1.04a8 8 0 0 0-.693.643q-.15.147-.297.296c-.05.05-.099.1-.099.149-.148.099-.148.346 0 .445.099.149.297.1.445 0 .149-.099.248-.247.347-.346.247-.248.494-.495.742-.693.148-.099.148-.346 0-.445a.38.38 0 0 0-.248-.099c-.05-.05-.148-.05-.198.05zm.94 2.325c-.198.198-.396.395-.545.593l-.05.05a.31.31 0 0 0 0 .445c.1.099.347.148.446 0l.148-.148a4.5 4.5 0 0 0 .446-.495c.099-.149.148-.297 0-.445a.38.38 0 0 0-.248-.1c-.099.05-.148.05-.198.1zm-.792-.94c-.149.148-.297.297-.495.445-.099.05-.148.148-.247.198h.05c-.05.05-.1.099-.1.148v.248c.05.148.297.247.446.148.049-.05.148-.099.197-.148.05-.05.149-.1.198-.198.149-.1.248-.248.396-.347s.148-.296 0-.445a.38.38 0 0 0-.247-.099c-.05-.05-.149 0-.198.05zm1.88 2.177c-.149.148-.297.346-.445.494a2 2 0 0 0-.297.347.4.4 0 0 0-.1.197c0 .1.05.149.1.248.05.05.148.099.198.099s.198 0 .247-.1c.099-.098.148-.197.247-.296.149-.198.347-.396.495-.544a.4.4 0 0 0 .099-.198c0-.1-.05-.149-.099-.247a.38.38 0 0 0-.247-.1c-.1 0-.149.05-.198.1zm.94 1.335c-.149.149-.297.248-.445.396l-.1.099-.049.05c-.099.148-.148.296 0 .445.1.099.346.148.445 0 .248-.149.446-.347.643-.545.149-.148.149-.346 0-.494a.38.38 0 0 0-.247-.1c-.099.05-.198.1-.247.15zm1.187.94c-.05.05-.148.149-.198.248l-.099.099a.4.4 0 0 0-.099.197c0 .1.05.149.1.248.098.099.346.148.445 0l.049-.05.247-.247a.38.38 0 0 0 .1-.247c0-.1-.05-.149-.1-.248a.38.38 0 0 0-.247-.099c-.05 0-.148.05-.198.1zM23.848 9.856a.9.9 0 0 0-.396.099c-.05 0-.1.049-.149.098-.05 0-.05.05-.099.05q-.223.148-.148.445a.4.4 0 0 0 .445.149h.05c.148-.05.297-.1.445-.1h.297c.099 0 .198.05.297.1l.445.296c.297.297.594.594.84.94.446.644.793 1.287 1.139 1.93.198.346.396.693.594.99.247.395.593.79.89 1.187.099.148.346.099.445 0a.4.4 0 0 0 .1-.198c0-.1-.05-.149-.1-.248a.9.9 0 0 0-.198-.247s0 .05.05.05c-.445-.594-.792-1.237-1.138-1.88-.346-.594-.643-1.237-1.039-1.83-.198-.347-.445-.644-.693-.94a3.2 3.2 0 0 0-.89-.743c-.198-.099-.396-.198-.594-.198h-.247c-.148.05-.247.05-.346.05zM20.335 1c-.05 0-.099 0-.099.05-.05.049-.099.049-.198.098-.198.149-.396.297-.544.495-.198.198-.445.346-.643.544-.297.149-.544.396-.792.643-.247.248-.544.495-.84.743-.248.148-.446.346-.693.445-.149.099-.297.148-.446.297-.05.05-.148.148-.197.247-.05.05-.05.148-.1.247-.098.248-.148.446-.247.693-.099.346-.198.643-.297.99-.05.148-.099.296-.148.494l-.148.594c0 .148-.05.247 0 .396.049.099.098.247.197.296.149.149.347.198.545.248.247.05.494.099.791.148.297.05.544.149.841.198.346.1.742.198 1.089.1.198-.05.346-.199.445-.298s.198-.198.346-.297c.445-.395.841-.742 1.286-1.088.495-.396.94-.841 1.386-1.237.198-.198.395-.396.643-.593l.742-.743c.05-.049.05-.098.099-.098.05-.05.05-.149.099-.248 0-.099 0-.148.05-.247 0-.1 0-.149-.05-.248-.05-.247-.297-.395-.446-.593-.247-.248-.494-.495-.692-.742l-.742-.742c-.1-.1-.247-.198-.346-.297-.05-.05-.1-.1-.198-.149-.05-.05-.05-.148-.1-.198A.56.56 0 0 0 20.534 1zm1.979 2.968zm-6.53 3.364c.049 0 .049.05 0 0zm2.077.545q-.075 0 0 0zm2.227-1.583c.05-.05.05 0 0 0z"/><path fill="#fff" d="M14.765 7.728h-.099c-.099 0-.148 0-.247.05a.38.38 0 0 0-.248.099c-.099.05-.148.099-.198.148-.346.247-.643.495-.989.742-.149.099-.247.198-.396.297-.099.099-.198.148-.247.297-.05.148 0 .297.05.396.049.098.197.197.296.247.198.05.346 0 .495-.149.297-.247.593-.544.89-.791l.594-.445c.099-.05.148-.149.247-.198.05-.05.05-.1.1-.149.098-.05.148-.198.148-.346-.05-.148-.149-.247-.297-.247 0 .05-.05.05-.099.05zm8.36-.05c-.346.05-.692.199-.94.446-.148.099-.246.247-.345.346-.05.05-.1.1-.1.149-.098.099-.148.247-.197.346-.149.297-.198.643-.248.99-.05.296-.05.643-.05.94 0 .643.15 1.286.298 1.929.148.544.396 1.088.643 1.632.247.545.593.99.89 1.485.347.494.693.94 1.04 1.385.346.445.741.89 1.088 1.336.84.99 1.78 1.83 2.82 2.622.247.198.494.346.742.494.396.198.89.347 1.336.347.148 0 .296-.05.445-.1.148-.049.297-.098.395-.197.1-.05.248-.198.347-.297.05-.05.05-.099.099-.148.05-.1.099-.149.148-.248.1-.148.149-.297.198-.445.05-.05.05-.148.05-.198.049-.148.099-.297.099-.445.049-.248.099-.544.099-.792 0-.296 0-.544-.05-.84-.05-.495-.198-.99-.346-1.485-.149-.445-.297-.94-.544-1.336-.248-.494-.594-.94-.94-1.385a.4.4 0 0 0-.198-.198c-.05-.05-.05-.148-.1-.198-.148-.296-.346-.544-.494-.84-.297-.496-.643-.94-.94-1.435s-.693-.94-1.039-1.386c-.148-.198-.346-.395-.495-.593-.198-.248-.445-.495-.692-.742a3.7 3.7 0 0 0-.693-.545c-.247-.198-.544-.346-.841-.494-.247-.1-.544-.149-.841-.198-.148 0-.247-.05-.396-.05 0 .149-.148.149-.247.149zm.545 1.09c.247.049.445.098.643.148.297.148.594.346.89.544.396.346.792.692 1.139 1.088l.89 1.039-.099-.099c.445.594.841 1.187 1.286 1.781a9 9 0 0 1 .545.89l.297.446c0 .099 0 .148.049.247.247.346.495.693.693 1.04.148.296.346.642.494.989.248.643.445 1.335.544 2.028v.445c0 .198 0 .347-.049.544 0 .1-.05.248-.05.347-.049.099-.049.198-.098.297-.05.148-.149.296-.248.395l-.148.149c-.05.05-.1.05-.149.099-.099.05-.148.05-.247.05h-.148a6 6 0 0 0-.495-.15c-.544-.247-.99-.543-1.484-.94-.693-.543-1.336-1.186-1.93-1.83a24 24 0 0 1-1.484-1.78l-.05-.05.05.05c-.346-.446-.643-.891-.99-1.386-.296-.445-.544-.94-.79-1.435-.1-.247-.199-.544-.298-.84-.099-.347-.148-.693-.247-1.04v.1c-.05-.297-.05-.594-.1-.891 0-.247 0-.544.05-.792v-.148c.05-.198.1-.396.198-.594l.149-.297.05-.05.197-.197a.4.4 0 0 1 .198-.099c.05 0 .099-.05.198-.05.247-.049.396-.049.544-.049zm-.792.098c-.049 0-.049.05-.099.05.05 0 .1-.05.1-.05zm7.57 7.866c0 .05.05.05.05.1-.05-.05-.05-.05-.05-.1m.396 3.76q0 .075 0 0m-.248.445-.099.1c0-.05.05-.05.1-.1z"/><path stroke="#fff" stroke-width=".8" d="M30.596 20.937c.1-.099.198-.247.248-.395.05-.1.05-.198.098-.297 0-.1.05-.248.05-.347.05-.197.05-.346.05-.544v-.445a9.5 9.5 0 0 0-.545-2.028c-.148-.347-.346-.693-.494-.99a13 13 0 0 0-.693-1.039c-.05-.099-.05-.148-.05-.247l-.296-.445a9 9 0 0 0-.545-.89c-.445-.595-.84-1.188-1.286-1.782l.1.099-.891-1.039c-.347-.396-.742-.742-1.138-1.088a9 9 0 0 0-.89-.544c-.199-.05-.397-.1-.644-.149-.148 0-.297 0-.544.05-.1 0-.149.049-.198.049s-.149.05-.198.099l-.198.198-.05.05-.148.296c-.099.198-.148.396-.198.594v.148c-.05.248-.05.545-.05.792.05.297.05.594.1.89v-.099c.099.347.148.693.247 1.04.1.296.198.593.297.84.247.495.495.99.792 1.435.346.495.643.94.99 1.385m6.084 4.403-.148.149m.148-.149-.099.1c0-.05.05-.05.1-.1zm-.148.149c-.05.05-.1.05-.149.099-.099.05-.148.05-.247.05h-.148a6 6 0 0 0-.495-.15c-.544-.247-.99-.543-1.484-.94-.693-.543-1.336-1.186-1.93-1.83a24 24 0 0 1-1.484-1.78m5.937 4.55c-.05 0-.05 0-.1.05m-5.837-4.6-.05-.05zm-9.746-8.807h-.099c-.099 0-.148 0-.247.05a.38.38 0 0 0-.248.099c-.099.05-.148.099-.198.148-.346.247-.643.495-.989.742-.149.099-.247.198-.396.297-.099.099-.198.148-.247.297-.05.148 0 .297.05.396.049.098.197.197.296.247.198.05.346 0 .495-.149.297-.247.593-.544.89-.791l.594-.445c.099-.05.148-.149.247-.198.05-.05.05-.1.1-.149.098-.05.148-.198.148-.346-.05-.148-.149-.247-.297-.247 0 .05-.05.05-.099.05zm8.36-.05c-.346.05-.692.199-.94.446-.148.099-.246.247-.345.346-.05.05-.1.1-.1.149-.098.099-.148.247-.197.346-.149.297-.198.643-.248.99-.05.296-.05.643-.05.94 0 .643.15 1.286.298 1.929.148.544.396 1.088.643 1.632.247.545.593.99.89 1.485.347.494.693.94 1.04 1.385.346.445.741.89 1.088 1.336.84.99 1.78 1.83 2.82 2.622.247.198.494.346.742.494.396.198.89.347 1.336.347.148 0 .296-.05.445-.1.148-.049.297-.098.395-.197.1-.05.248-.198.347-.297.05-.05.05-.099.099-.148.05-.1.099-.149.148-.248.1-.148.149-.297.198-.445.05-.05.05-.148.05-.198.049-.148.099-.297.099-.445.049-.248.099-.544.099-.792 0-.296 0-.544-.05-.84-.05-.495-.198-.99-.346-1.485-.149-.445-.297-.94-.544-1.336-.248-.494-.594-.94-.94-1.385a.4.4 0 0 0-.198-.198c-.05-.05-.05-.148-.1-.198-.148-.296-.346-.544-.494-.84-.297-.496-.643-.94-.94-1.435s-.693-.94-1.039-1.386c-.148-.198-.346-.395-.495-.593-.198-.248-.445-.495-.692-.742a3.7 3.7 0 0 0-.693-.545c-.247-.198-.544-.346-.841-.494-.247-.1-.544-.149-.841-.198-.148 0-.247-.05-.396-.05 0 .149-.148.149-.247.149zm-.247 1.188c-.049 0-.049.05-.099.05.05 0 .1-.05.1-.05zm7.57 7.866c0 .05.05.05.05.1-.05-.05-.05-.05-.05-.1zm.396 3.76q0 .075 0 0z"/><path fill="#fff" d="M20.338 5.991c-.098.05-.197.198-.247.297s0 .297.05.396c.247.346.494.742.742 1.138.148.198.297.445.445.643.099.099.148.198.247.297l.149.148s0 .05.05.05a.322.322 0 1 0 .544-.346l-.05-.05c0-.05-.05-.1-.05-.198 0-.05-.049-.1-.049-.149-.05-.098-.05-.148-.099-.247a3.2 3.2 0 0 0-.396-.693 3.7 3.7 0 0 0-.346-.593c-.099-.198-.247-.396-.346-.594a.52.52 0 0 0-.446-.247c0 .099-.099.099-.198.148m-17.265.89c-.545.248-.99.644-1.386 1.09-.198.246-.346.543-.494.84s-.248.643-.396.94a5.7 5.7 0 0 0-.297 1.83c0 .347 0 .644.05.99l.148 1.039c.099.544.198 1.138.346 1.682.1.297.149.594.248.89s.247.644.346.94c.099.248.247.545.346.792v.05c0 .049.05.049.05.099v-.05c.099.247.247.544.296.841.1.297.149.643.198.94l.149 1.484c.05.594.05 1.138.099 1.732.05.494.099 1.039.198 1.533.099.545.198 1.04.296 1.584.05.099.05.247.1.346.049.247.148.445.296.693.05.098.1.197.198.247l.149.148c.049.05.148.1.247.149.099.05.297.099.396.099h.148c.1 0 .198-.05.297-.05l.297-.148c.05-.05.099-.1.198-.1.05-.049.148-.098.198-.148.099-.099.148-.197.247-.296.099-.1.148-.198.247-.347a3.3 3.3 0 0 0 .446-.94 17 17 0 0 0 .494-1.484c.149-.495.248-.94.446-1.435a2.3 2.3 0 0 1 .247-.494c.099-.198.247-.396.396-.594l.445-.445c.099-.05.198-.149.297-.198.05-.05.148-.05.247-.05h.149c.049 0 .098.05.148.05.099.05.148.099.247.148-.05 0-.05-.05-.099-.05l.297.298c.1.148.248.346.347.544.098.148.148.346.247.494.099.248.198.495.297.792.099.346.198.693.297.99l.445 1.929c.05.297.148.544.247.841.05.148.1.247.149.396.05.148.197.346.296.494.05.1.149.149.248.248.099.05.148.099.247.148.05 0 .1.05.149.05.099 0 .197 0 .296.05h.149c.099 0 .247-.05.346-.1a1.6 1.6 0 0 0 .742-.544c.297-.297.495-.692.693-1.088.593-1.188.791-2.523.89-3.81.1-1.236.198-2.523.297-3.76l.149-1.187v-.099.05c.05-.347.099-.693.197-1.04.1-.395.248-.741.396-1.137v.05s0-.05.05-.05a5 5 0 0 1 .346-.742l.445-.89c.297-.644.446-1.337.544-2.079v-.89a5.3 5.3 0 0 0-.197-.94 1.8 1.8 0 0 0-.198-.445 3 3 0 0 0-.396-.446c-.247-.247-.544-.395-.841-.593-.247-.149-.594-.05-.742.198-.149.247-.05.593.198.742.198.099.395.198.544.346.099.05.148.148.247.198.05.099.1.148.149.247.099.248.148.495.198.693.05.396 0 .84-.05 1.237-.05.197-.05.346-.099.544-.05.198-.099.346-.198.544-.148.346-.346.742-.494 1.088a14 14 0 0 0-.495 1.287c-.248.84-.445 1.682-.495 2.523-.05.94-.148 1.83-.198 2.77-.05.99-.099 1.93-.247 2.92v-.15c-.05.347-.1.743-.198 1.09-.099.345-.198.692-.346 1.038 0-.05.05-.05.05-.099-.05.149-.15.346-.248.495a4 4 0 0 1-.297.495l-.297.296c-.05.05-.099.05-.148.1-.05 0-.05 0-.1.049h-.099c-.049-.05-.148-.1-.197-.149l.05.05.049.05-.1-.1a4 4 0 0 1-.296-.494c-.05-.05-.05-.149-.099-.248-.148-.445-.297-.84-.445-1.286-.149-.544-.248-1.039-.396-1.583a51 51 0 0 0-.445-1.435q-.15-.37-.297-.742c-.099-.148-.148-.297-.247-.495a1.3 1.3 0 0 0-.248-.296.7.7 0 0 1-.148-.198.9.9 0 0 0-.248-.198l-.296-.149c-.05 0-.1-.05-.198-.05-.1 0-.198-.049-.297-.049s-.198 0-.297.05c-.05 0-.099.05-.198.05l-.297.148c-.099.05-.198.099-.296.198a1.2 1.2 0 0 0-.347.346 2.2 2.2 0 0 0-.396.544c-.148.198-.247.445-.346.643l-.297.742c-.148.446-.297.89-.396 1.336-.049.198-.098.445-.197.643-.1.297-.198.544-.297.792-.149.297-.297.594-.495.84l-.297.298a.4.4 0 0 1-.198.099c-.099.05-.148.05-.247.05h.149-.1l-.049-.05-.198-.198c0 .05.05.05.099.099-.05-.1-.148-.198-.198-.297l-.148-.445-.149-.594c-.099-.346-.148-.742-.198-1.088v.099c-.099-.644-.148-1.336-.197-1.98-.05-.692-.05-1.385-.05-2.077 0-.347 0-.693-.099-1.04a4.2 4.2 0 0 0-.247-.84c-.198-.594-.495-1.138-.742-1.682 0 .05.05.099.05.099a13 13 0 0 1-.397-.99c-.099-.346-.198-.643-.297-.99a15.4 15.4 0 0 1-.445-2.176c-.05-.247-.05-.544-.05-.792 0-.247 0-.544.05-.791-.396-.346-.346-.594-.297-.841.1-.297.149-.544.297-.792.05-.148.149-.247.198-.396q.15-.222.297-.445c.148-.198.346-.346.495-.544.148-.099.297-.198.494-.297.05 0 .1 0 .198-.05.1-.049.248-.049.347-.049h-.149.544c.347.1.644.198.94.297.495.247.99.544 1.485.792.247.148.544.247.791.346s.544.148.792.198q.445.075.89 0c.346 0 .643-.1.94-.247.346-.149.693-.347.99-.545a2 2 0 0 0 .346-.297.7.7 0 0 0 .148-.197s0-.05.05-.05c.148-.05.198-.198.148-.346-.05-.149-.247-.297-.396-.198-.049 0-.049.05-.098.05-.248 0-.495.098-.743.247-.148.099-.296.148-.445.247-.099.05-.198.099-.346.149a4 4 0 0 1-.742.197h-.643c-.1 0-.198-.05-.297-.05a3 3 0 0 1-.396-.147 9 9 0 0 1-1.336-.743 5.1 5.1 0 0 0-1.88-.692h-.346c-.346 0-.742.05-1.088.198zm13.506 3.117.05.05zm.247 3.414s0 .05-.05.05c.05 0 .05 0 .05-.05m-7.47 7.619h.099c-.05.05-.05.05-.1 0zm-.198.05h-.1zm-.198.049c-.05 0-.1.05-.1.05.05 0 .05-.05.1-.05m-3.463 5.145-.05.05zm-.297.346-.05.05c0-.05.05-.05.05-.05m-.149.1c-.049 0-.049 0-.098.049.049 0 .049 0 .098-.05zm8.56.445c-.05 0-.05.049-.1.049.05 0 .1 0 .1-.05zm-.248.197q-.075 0 0 0m-.05 0q-.075.075 0 0-.075 0 0 0M2.578 19.794q0-.075 0 0m-.495-1.83c-.05-.05-.05 0 0 0"/><path stroke="#fff" stroke-width=".8" d="M2.528 19.794c-.05-.297-.099-.643-.198-.94-.049-.297-.197-.594-.296-.841v.05c0-.05-.05-.05-.05-.1v-.049c-.099-.247-.247-.544-.346-.792-.1-.296-.247-.643-.346-.94-.1-.296-.149-.593-.248-.89-.148-.544-.247-1.138-.346-1.682l-.149-1.039C.5 12.225.5 11.928.5 11.581c0-.643.099-1.236.297-1.83.148-.297.247-.643.396-.94.148-.297.296-.594.494-.84.396-.446.841-.842 1.386-1.09.346-.148.742-.197 1.088-.197h.346a5.1 5.1 0 0 1 1.88.692q.668.446 1.336.743c.099.049.247.098.396.148.099 0 .198.05.297.05h.643c.247-.05.495-.1.742-.198.148-.05.247-.1.346-.149.149-.099.297-.148.445-.247.248-.149.495-.248.742-.248.05 0 .05-.05.1-.05.148-.098.346.05.395.199.05.148 0 .297-.148.346-.05 0-.05.05-.05.05-.05.099-.099.148-.148.197a2 2 0 0 1-.346.297 6.3 6.3 0 0 1-.99.545c-.297.148-.594.247-.94.247a2.7 2.7 0 0 1-.89 0c-.248-.05-.545-.1-.792-.198-.247-.099-.544-.198-.791-.346-.495-.248-.99-.545-1.485-.792a22 22 0 0 0-.94-.297h-.544.149c-.1 0-.248 0-.347.05s-.148.05-.198.05a4 4 0 0 0-.494.296c-.149.198-.347.346-.495.544l-.297.446c-.05.148-.148.247-.198.395-.148.248-.198.495-.297.792-.05.247-.099.495.297.84-.05.248-.05.545-.05.792 0 .248 0 .545.05.792.1.742.248 1.484.445 2.177.1.346.198.643.297.99.1.296.248.642.396.989 0 0-.05-.05-.05-.1.248.545.545 1.09.743 1.683.099.247.198.544.247.84.099.347.099.694.099 1.04 0 .692 0 1.385.05 2.078.049.643.098 1.335.197 1.979v-.1c.05.347.1.743.198 1.089l.149.594.148.445c.05.099.149.198.198.297-.05-.05-.099-.05-.099-.1l.198.199.05.05H5.2m-2.672-7.026zm0 0 .149 1.484c.05.594.05 1.138.099 1.732.05.494.099 1.039.198 1.533.099.545.198 1.04.296 1.584.05.099.05.247.1.346.049.247.148.445.296.693.05.098.1.197.198.247l.149.148c.049.05.148.1.247.149.099.05.297.099.396.099h.148c.1 0 .198-.05.297-.05l.297-.148c.05-.05.099-.1.198-.1.05-.049.148-.098.198-.148.099-.099.148-.197.247-.296.099-.1.148-.198.247-.347a3.3 3.3 0 0 0 .446-.94 17 17 0 0 0 .494-1.484c.149-.495.248-.94.446-1.435a2.3 2.3 0 0 1 .247-.494c.099-.198.247-.396.396-.594l.445-.445c.099-.05.198-.149.297-.198.05-.05.148-.05.247-.05h.149m0 0c.049 0 .098.05.148.05.099.05.148.099.247.148-.05 0-.05-.05-.099-.05l.297.298c.1.148.248.346.347.544.098.148.148.346.247.494.099.248.198.495.297.792.099.346.198.693.297.99l.445 1.929c.05.297.148.544.247.841.05.148.1.247.149.396.05.148.197.346.296.494.05.1.149.149.248.248.099.05.148.099.247.148.05 0 .1.05.149.05.099 0 .197 0 .296.05h.149c.099 0 .247-.05.346-.1a1.6 1.6 0 0 0 .742-.544c.297-.297.495-.692.693-1.088.593-1.188.791-2.523.89-3.81.1-1.236.198-2.523.297-3.76l.149-1.187v-.05M9.455 21.08c-.05 0-.05 0-.1-.05m7.224-3.066v-.05zm0 0c.05-.347.099-.693.197-1.04.1-.395.248-.741.396-1.137v.05s0-.05.05-.05m0 0v-.05m0 .05a5 5 0 0 1 .346-.742l.445-.89c.297-.644.446-1.337.544-2.079v-.89a5.3 5.3 0 0 0-.197-.94 1.8 1.8 0 0 0-.198-.445 3 3 0 0 0-.396-.446c-.247-.247-.544-.395-.841-.593-.247-.149-.594-.05-.742.198-.149.247-.05.593.198.742.198.099.395.198.544.346.099.05.148.148.247.198.05.099.1.148.149.247.099.248.148.495.198.693.05.396 0 .84-.05 1.237-.05.197-.05.346-.099.544-.05.198-.099.346-.198.544-.148.346-.346.742-.494 1.088a14 14 0 0 0-.495 1.287c-.248.84-.445 1.682-.495 2.523-.05.94-.148 1.83-.198 2.77-.05.99-.099 1.93-.247 2.92v-.15c-.05.347-.1.743-.198 1.09-.099.345-.198.692-.346 1.038 0-.05.05-.05.05-.099-.05.149-.15.346-.248.495a4 4 0 0 1-.297.495l-.297.296c-.05.05-.099.05-.148.1-.05 0-.05 0-.1.049h-.099c-.049-.05-.148-.1-.197-.149m0 0 .05.05.049.05zm0 0a4 4 0 0 1-.297-.494c-.05-.05-.05-.149-.099-.248-.148-.445-.297-.84-.445-1.286-.149-.544-.248-1.039-.396-1.583a51 51 0 0 0-.445-1.435q-.15-.37-.297-.742c-.099-.148-.148-.297-.247-.495a1.3 1.3 0 0 0-.248-.296.7.7 0 0 1-.148-.198.9.9 0 0 0-.248-.198l-.296-.149c-.05 0-.1-.05-.198-.05-.1 0-.198-.049-.297-.049s-.198 0-.297.05c-.05 0-.099.05-.198.05l-.297.148c-.099.05-.198.099-.296.198a1.2 1.2 0 0 0-.347.346 2.2 2.2 0 0 0-.396.544c-.148.198-.247.445-.346.643l-.297.742c-.148.446-.297.89-.396 1.336-.049.198-.098.445-.197.643-.1.297-.198.544-.297.792-.149.297-.297.594-.495.84l-.297.298a.4.4 0 0 1-.198.099c-.099.05-.148.05-.247.05H5.2m0 0h.05zm11.923-15.783v.149M1.489 12.423v.099m7.867 8.509c0 .05.05.05 0 0zm0 0h.099c-.05.05-.05.05-.1 0zm0 0q.075.075 0 0zm3.957 6.332q-.075.075 0 0zm0 0q-.075 0 0 0zm7.025-21.372c-.098.05-.197.198-.247.297s0 .297.05.396c.247.346.494.742.742 1.138.148.198.297.445.445.643.099.099.148.198.247.297l.149.148s0 .05.05.05a.322.322 0 1 0 .544-.346l-.05-.05c0-.05-.05-.1-.05-.198 0-.05-.049-.1-.049-.149-.05-.098-.05-.148-.099-.247a3.2 3.2 0 0 0-.396-.693 3.7 3.7 0 0 0-.346-.593c-.099-.198-.247-.396-.346-.594a.52.52 0 0 0-.446-.247c0 .099-.099.099-.198.148zM9.801 8.07q-.075.075 0 0zM16.579 10l.05.049-.05-.05zm.247 3.413s0 .05-.05.05c.05 0 .05 0 .05-.05zM9.158 21.08h-.1zm-.198.05c-.05 0-.1.05-.1.05.05 0 .05-.05.1-.05zm-3.463 5.145-.05.05zm-.297.346-.05.05c0-.05.05-.05.05-.05zm-.149.1c-.049 0-.049 0-.098.049.049 0 .049 0 .098-.05zm8.56.445c-.05 0-.05.049-.1.049.05 0 .1 0 .1-.05zm-.248.197q-.075 0 0 0zM2.578 19.794q0-.075 0 0zm-.495-1.83c-.05-.05-.05 0 0 0z"/><path fill="#fff" d="M12.484 6.591c-.297.05-.594.198-.841.346a1.2 1.2 0 0 0-.347.347c-.05.099-.099.148-.148.247l-.05.05c-.148.099-.099.346 0 .445.149.148.297.099.446 0 .099 0 .148 0 .247-.05.149-.05.247-.099.396-.148.198-.099.445-.148.643-.198h.544c.1 0 .248.05.346.099h.297c.149-.05.248-.148.347-.247.148-.248.05-.594-.198-.742a1.5 1.5 0 0 0-.495-.198c-.148-.05-.297-.05-.445-.05h-.1c-.197 0-.444.05-.642.1zm18.354 14.545c-.099.05-.198.198-.247.297-.05.148 0 .247.05.396 0 .05.049.099.049.148.05.198.148.346.197.544l.149.594c0 .198.05.346.05.544s0 .396-.05.594-.05.396-.099.593c-.05.198-.148.446-.198.644a4 4 0 0 1-.594.99l.1-.1c-.05.05-.05.1-.1.149a4.5 4.5 0 0 1-.445.494c-.148.149-.297.297-.494.396-.149.1-.347.247-.495.346-.198.1-.347.198-.544.297a4.5 4.5 0 0 0-.693.347l-.297.148c-.099.05-.198.148-.247.198-.05 0-.1.05-.149.05a.322.322 0 1 0 .346.544l.05-.05c.198 0 .346-.05.544-.05.198-.049.445-.148.643-.197.446-.149.841-.396 1.188-.643a6 6 0 0 0 1.979-2.029c.198-.346.396-.742.494-1.138.1-.247.1-.544.149-.791 0-.198.05-.346.05-.544 0-.396 0-.841-.1-1.237a4.6 4.6 0 0 0-.494-1.386.52.52 0 0 0-.446-.247c-.148.05-.247.05-.346.1zm-.049 4.205c0 .05-.05.05-.05.1.05 0 .05-.05.05-.1M8.13 10.351c-.05.05-.05.099-.05.148-.098.1-.148.198-.247.347s-.148.297-.198.396c-.099.197-.198.346-.247.544-.05.148-.099.247-.099.445 0 .148.099.346.198.445s.247.198.396.248l.89.445c.297.148.594.346.89.544l-.098-.099c.247.198.495.347.692.594-.049.247-.148.495-.197.692-.149.396-.347.742-.545 1.089-.247.396-.494.791-.791 1.187-.149.198-.05.544.198.693.198.148.544.05.692-.198.347-.693.693-1.435 1.089-2.127a9 9 0 0 1 .544-.89c.148-.199.247-.397.247-.644a.8.8 0 0 0-.247-.544c-.248-.248-.544-.446-.841-.643-.248-.198-.544-.347-.792-.495-.346-.149-.692-.297-.99-.495.05-.247.1-.495.15-.692 0-.1.049-.248.049-.347s.05-.247.05-.346v-.05c.098-.148 0-.346-.1-.445-.05-.05-.099-.05-.148-.05-.297.1-.445.15-.495.248m.247 1.732q0 .075 0 0"/><path stroke="#fff" stroke-width=".8" d="M30.145 26.48c.248-.298.446-.644.594-.99.05-.198.148-.446.198-.643.05-.198.05-.396.099-.594.05-.198.05-.396.05-.594s-.05-.346-.05-.544l-.149-.594c-.049-.198-.148-.346-.197-.544 0-.05-.05-.099-.05-.148-.05-.149-.099-.248-.05-.396.05-.099.15-.247.248-.297.099-.05.198-.05.346-.099a.52.52 0 0 1 .446.248c.247.445.395.89.494 1.385.1.395.1.84.1 1.237 0 .198-.05.346-.05.544-.05.247-.05.544-.149.791-.098.396-.296.792-.494 1.138a6 6 0 0 1-1.98 2.029c-.345.247-.741.494-1.187.643-.198.05-.445.148-.643.198-.198 0-.346.05-.544.05l-.05.049a.322.322 0 1 1-.346-.545c.05 0 .1-.05.149-.05.05-.049.148-.148.247-.197l.297-.148c.247-.149.445-.248.692-.347.198-.099.347-.198.545-.297.148-.099.346-.247.495-.346.197-.099.346-.247.494-.396.149-.148.297-.296.445-.494.05-.05.05-.1.1-.149zm0 0-.098.098M12.484 6.591c-.297.05-.594.198-.841.346a1.2 1.2 0 0 0-.347.347c-.05.099-.099.148-.148.247l-.05.05c-.148.099-.099.346 0 .445.149.148.297.099.446 0 .099 0 .148 0 .247-.05.149-.05.247-.099.396-.148.198-.099.445-.148.643-.198h.544c.1 0 .248.05.346.099h.297c.149-.05.248-.148.347-.247.148-.248.05-.594-.198-.742a1.5 1.5 0 0 0-.495-.198c-.148-.05-.297-.05-.445-.05h-.1c-.197 0-.444.05-.642.1zm18.601 16.524zm-.296 2.226c0 .05-.05.05-.05.1.05 0 .05-.05.05-.1zM8.13 10.351c-.05.05-.05.099-.05.148-.098.1-.148.198-.247.347s-.148.297-.198.396c-.099.197-.198.346-.247.544-.05.148-.099.247-.099.445 0 .148.099.346.198.445s.247.198.396.248l.89.445c.297.148.594.346.89.544l-.098-.099c.247.198.495.347.692.594-.049.247-.148.495-.197.692-.149.396-.347.742-.545 1.089-.247.396-.494.791-.791 1.187-.149.198-.05.544.198.693.198.148.544.05.692-.198.347-.693.693-1.435 1.089-2.127a9 9 0 0 1 .544-.89c.148-.199.247-.397.247-.644a.8.8 0 0 0-.247-.544c-.248-.248-.544-.446-.841-.643-.248-.198-.544-.347-.792-.495-.346-.149-.692-.297-.99-.495.05-.247.1-.495.15-.692 0-.1.049-.248.049-.347s.05-.247.05-.346v-.05c.098-.148 0-.346-.1-.445-.05-.05-.099-.05-.148-.05-.297.1-.445.15-.495.248zm.247 1.732q0 .075 0 0z"/></svg>