<svg xmlns="http://www.w3.org/2000/svg" width="33" height="34" fill="none"><path fill="#fff" stroke="#fff" d="m31.13 10.894-.073-.464-.467.046c-.006 0-.718.07-1.729.07-1.01 0-2.472-.071-3.811-.395a9.4 9.4 0 0 0-.42-4.252c-.76-2.208-2.326-3.839-4.293-4.468-3.4-1.09-6.238.144-7.523.89-1.284-.746-4.123-1.98-7.522-.89-1.969.63-3.534 2.26-4.294 4.473-.984 2.858-.492 6.148 1.315 8.804 1.106 1.624 1.828 3.456 2.088 5.296l.044.333c.266 2.064.661 3.728 1.175 4.946.67 1.59 1.574 2.454 2.686 2.566q.108.01.215.01c1.127 0 2.035-.92 2.702-2.738.447-1.221.799-2.849.992-4.584q.018-.167.043-.326c.086 1.08.26 2.05.558 2.774 1.272 3.054 3.62 5.57 5.365 7.144 1.883 1.699 3.45 2.67 3.515 2.71l.26.161.26-.16c.067-.04 1.633-1.012 3.516-2.71 1.745-1.574 4.092-4.092 5.364-7.145 1.376-3.297.088-11.734.033-12.09zm-18.346 0c-.034.223-.548 3.596-.595 6.899a1 1 0 0 0-.165.18c-.408.572-.682 1.42-.797 2.452-.186 1.658-.515 3.204-.936 4.351-.533 1.454-1.167 2.155-1.886 2.082-.72-.072-1.352-.732-1.871-1.963-.478-1.135-.85-2.713-1.105-4.689q-.022-.176-.046-.344c-.282-1.992-1.058-3.966-2.25-5.712-1.632-2.4-2.08-5.362-1.197-7.925.658-1.912 1.991-3.315 3.658-3.85 3.259-1.045 5.952.31 6.956.945l.264.166.264-.166c1.006-.632 3.697-1.99 6.957-.944 1.666.534 2.999 1.936 3.657 3.847a8.4 8.4 0 0 1 .393 3.64c-.702-.26-1.323-.613-1.762-1.094l-.366-.402-.366.402c-1.41 1.546-4.702 1.777-6.538 1.777-1.011 0-1.723-.069-1.73-.07l-.467-.046zm17.394 11.707c-2.027 4.874-7.024 8.424-8.22 9.222-1.198-.797-6.192-4.34-8.226-9.223-1.095-2.63-.28-9.3-.033-11.102.323.02.792.04 1.353.04 2.268 0 5.225-.315 6.904-1.748 1.68 1.433 4.637 1.747 6.905 1.747.56 0 1.03-.02 1.352-.039.248 1.801 1.064 8.472-.035 11.103z"/><path fill="#fff" stroke="#fff" d="m21.092 19.177-2.012-2.012-2.097 2.097 2.011 2.01-.005.005 1.823 1.824.262.298 2.121-2.12-.005-.004 3.623-3.622-2.098-2.098zm4.318-1.526-3.625 3.624.006.005-.671.67-.005-.006-.028.029-.693-.693.006-.006-2.014-2.012.695-.695 2.012 2.011 3.623-3.623z"/></svg>