<svg xmlns="http://www.w3.org/2000/svg" width="33" height="32" fill="none"><path stroke="#fff" stroke-width="2" d="m23.341 10.034-.996.004v2.773h5.314a14.06 14.06 0 0 0-1.59 6.27 21.3 21.3 0 0 1-.77 4.866c-.439 1.58-1.539 3.396-2.754 4.83-.602.71-1.205 1.295-1.73 1.691a4 4 0 0 1-.666.422l-.006.003c.406-2.3.61-3.625.63-4.646.022-1.092-.17-1.83-.448-2.907l-.006-.021a8.36 8.36 0 0 0-1.773-3.57l-.017-.019-.017-.019a2.95 2.95 0 0 0-2.387-.925 2.28 2.28 0 0 0-1.697.927l-.008.011-.008.011a13.4 13.4 0 0 0-1.729 3.513l-.008.027-.007.028c-.286 1.1-.477 1.845-.447 2.949.027 1.02.243 2.343.661 4.639a3.4 3.4 0 0 1-.5-.298c-.519-.362-1.137-.935-1.765-1.656-1.266-1.453-2.436-3.347-2.894-4.99a21.3 21.3 0 0 1-.77-4.868 14.06 14.06 0 0 0-1.629-6.262h4.743v-2.783H4.183l-.098-.387c-.399-1.576-.381-2.919-.01-4.06.365-1.127 1.1-2.137 2.276-3.02 2.34-1.483 4.05-1.696 5.298-1.498 1.271.201 2.217.845 3.051 1.435.439.37.949.649 1.498.817l.293.09.293-.09a4.3 4.3 0 0 0 1.498-.817c.835-.59 1.78-1.235 3.047-1.44 1.249-.2 2.957.009 5.294 1.494l.184.116c1.064.852 1.744 1.815 2.093 2.884.373 1.142.396 2.484-.003 4.06l-.1.398z"/><mask id="a" fill="#fff"><path d="M31.911 11.811h-8.566v-.777h8.566a.571.571 0 0 0 0-1.142h-2.044c.868-3.426 0-6.162-2.667-8.15h-.04c-4.998-3.204-7.813-1.216-9.492-.028a3.25 3.25 0 0 1-1.177.651 3.3 3.3 0 0 1-1.176-.651c-1.68-1.188-4.5-3.176-9.532 0C3.139 3.7 2.248 6.43 3.116 9.864H1.07a.571.571 0 1 0 0 1.142h7.996v.777H1.07a.571.571 0 1 0 0 1.142h3.204l.086.177a13.06 13.06 0 0 1 1.553 5.98c.07 1.727.34 3.44.805 5.105 1.023 3.695 5.066 8.122 6.563 7.796a.85.85 0 0 0 .57-1.102c-.856-4.843-.787-5.123-.216-7.328a12.4 12.4 0 0 1 1.633-3.25 1.27 1.27 0 0 1 .96-.519 1.95 1.95 0 0 1 1.587.611 7.36 7.36 0 0 1 1.53 3.158c.572 2.205.623 2.485-.256 7.305a.853.853 0 0 0 .57 1.102 1 1 0 0 0 .178 0c1.616 0 5.403-4.232 6.385-7.761a22.4 22.4 0 0 0 .805-5.106 13.06 13.06 0 0 1 1.594-5.957l.085-.177h3.204a.571.571 0 0 0 0-1.142zM4.298 9.892c-.88-3.107-.16-5.482 2.136-7.207 1.787-1.142 3.204-1.542 4.403-1.542 1.713 0 2.856.828 3.821 1.508a3.5 3.5 0 0 0 1.833.856c.683-.1 1.321-.4 1.834-.862 1.633-1.142 3.866-2.73 8.207 0 2.284 1.747 3.026 4.123 2.153 7.224h-5.34V8.3a.57.57 0 0 0-.572-.571H21.06v-.874a.57.57 0 0 0-.57-.571h-8.568a.57.57 0 0 0-.57.57v.875H9.637a.57.57 0 0 0-.571.57v1.594h-4.77zM22.202 8.87v5.106H21.06V8.87zm-2.284-1.445v7.996h-7.425V7.425zM11.35 8.87v5.106h-1.14V8.87h1.142zm14.58 10.166a21 21 0 0 1-.77 4.871c-.868 3.125-3.684 5.986-4.855 6.74.811-4.49.754-5.026.166-7.368a8.3 8.3 0 0 0-1.862-3.695 3.15 3.15 0 0 0-2.513-.936 2.39 2.39 0 0 0-1.793 1.027 13.8 13.8 0 0 0-1.81 3.604c-.572 2.342-.646 2.856.165 7.368-1.142-.754-3.998-3.615-4.854-6.74a21 21 0 0 1-.771-4.871 14 14 0 0 0-1.508-6.083h3.54v1.594a.57.57 0 0 0 .572.571h1.713v.874a.57.57 0 0 0 .571.57h8.567a.57.57 0 0 0 .571-.57v-.874h1.713a.57.57 0 0 0 .572-.571v-1.594h4.095a14 14 0 0 0-1.508 6.083z"/></mask><path stroke="#fff" stroke-width="2" d="M31.911 11.811h-8.566v-.777h8.566a.571.571 0 0 0 0-1.142h-2.044c.868-3.426 0-6.162-2.667-8.15h-.04c-4.998-3.204-7.813-1.216-9.492-.028a3.25 3.25 0 0 1-1.177.651 3.3 3.3 0 0 1-1.176-.651c-1.68-1.188-4.5-3.176-9.532 0C3.139 3.7 2.248 6.43 3.116 9.864H1.07a.571.571 0 1 0 0 1.142h7.996v.777H1.07a.571.571 0 1 0 0 1.142h3.204l.086.177a13.06 13.06 0 0 1 1.553 5.98c.07 1.727.34 3.44.805 5.105 1.023 3.695 5.066 8.122 6.563 7.796a.85.85 0 0 0 .57-1.102c-.856-4.843-.787-5.123-.216-7.328a12.4 12.4 0 0 1 1.633-3.25 1.27 1.27 0 0 1 .96-.519 1.95 1.95 0 0 1 1.587.611 7.36 7.36 0 0 1 1.53 3.158c.572 2.205.623 2.485-.256 7.305a.853.853 0 0 0 .57 1.102 1 1 0 0 0 .178 0c1.616 0 5.403-4.232 6.385-7.761a22.4 22.4 0 0 0 .805-5.106 13.06 13.06 0 0 1 1.594-5.957l.085-.177h3.204a.571.571 0 0 0 0-1.142zM4.298 9.892c-.88-3.107-.16-5.482 2.136-7.207 1.787-1.142 3.204-1.542 4.403-1.542 1.713 0 2.856.828 3.821 1.508a3.5 3.5 0 0 0 1.833.856c.683-.1 1.321-.4 1.834-.862 1.633-1.142 3.866-2.73 8.207 0 2.284 1.747 3.026 4.123 2.153 7.224h-5.34V8.3a.57.57 0 0 0-.572-.571H21.06v-.874a.57.57 0 0 0-.57-.571h-8.568a.57.57 0 0 0-.57.57v.875H9.637a.57.57 0 0 0-.571.57v1.594h-4.77zM22.202 8.87v5.106H21.06V8.87zm-2.284-1.445v7.996h-7.425V7.425zM11.35 8.87v5.106h-1.14V8.87h1.142zm14.58 10.166a21 21 0 0 1-.77 4.871c-.868 3.125-3.684 5.986-4.855 6.74.811-4.49.754-5.026.166-7.368a8.3 8.3 0 0 0-1.862-3.695 3.15 3.15 0 0 0-2.513-.936 2.39 2.39 0 0 0-1.793 1.027 13.8 13.8 0 0 0-1.81 3.604c-.572 2.342-.646 2.856.165 7.368-1.142-.754-3.998-3.615-4.854-6.74a21 21 0 0 1-.771-4.871 14 14 0 0 0-1.508-6.083h3.54v1.594a.57.57 0 0 0 .572.571h1.713v.874a.57.57 0 0 0 .571.57h8.567a.57.57 0 0 0 .571-.57v-.874h1.713a.57.57 0 0 0 .572-.571v-1.594h4.095a14 14 0 0 0-1.508 6.083z" mask="url(#a)"/></svg>