<svg xmlns="http://www.w3.org/2000/svg" width="28" height="34" fill="none"><path fill="#fff" stroke="#fff" d="M23.619 11.394c-2.122-.628-4.635-.291-5.976.806l-.055.046c-.974.771-2.33 1.205-3.814 1.223-1.54-.006-3.015-.435-4.084-1.229l-.136-.103c-1.388-1.068-3.997-1.371-6.095-.703-2.098.669-3.16 2.103-2.928 3.938.287 2.228 1.843 6.05 3.096 9.125.486 1.177.901 2.194 1.156 2.909.064.182.12.371.176.56.263.914.303 1.84.311 2.622.008 1.086.933 2.046 2.242 2.332.191.04.462.08.766.08.941 0 2.281-.366 3.23-2.16.75-1.429.926-2.497 1.078-3.44.151-.977.279-1.743 1.029-2.634.072-.075.207-.103.319-.103.072 0 .231.006.31.103.68.817.83 1.577 1.03 2.537.2 1 .423 2.125 1.277 3.605 1.292 2.235 3.095 2.212 4.06 1.995 1.324-.292 2.21-1.24 2.162-2.303-.048-1.04.016-1.874.192-2.612.047-.188.095-.371.151-.56.224-.708.59-1.73 1.013-2.914 1.11-3.074 2.481-6.897 2.68-9.125.168-1.863-1.028-3.36-3.19-3.995zm-1.03 12.835c-.43 1.194-.805 2.222-1.028 2.954q-.096.301-.168.611c-.2.817-.263 1.72-.216 2.846.024.548-.398 1.028-1.037 1.171-.295.063-1.188.263-2.114-1.337-.773-1.348-.989-2.405-1.172-3.331-.208-1-.4-1.949-1.237-2.96-.343-.412-.965-.663-1.675-.663h-.008c-.702 0-1.332.246-1.675.651-.942 1.109-1.094 2.075-1.261 3.098-.144.874-.303 1.868-.99 3.165-.39.749-1.068 1.6-2.034 1.389-.622-.137-1.1-.669-1.108-1.24-.008-.84-.048-1.84-.343-2.852-.056-.205-.128-.405-.2-.611-.255-.726-.678-1.754-1.165-2.949-1.164-2.863-2.768-6.782-3.04-8.908-.23-1.794 1.15-2.514 1.995-2.783a5.6 5.6 0 0 1 1.723-.257c.998 0 1.963.24 2.545.691l.152.12c.439.32.933.595 1.468.829l-1.093 1.126c-.16.165-.208.371-.136.565l.327.863-1.372.337c-.383.098-.646.355-.646.652v.914c0 .32.359.572.798.572.438 0 .798-.252.798-.572v-.588l1.5-.372c.47-.114.741-.474.614-.823l-.4-1.074 1.078-1.109c.375.092.766.155 1.157.195l-.423 1.463c-.056.2.016.4.183.56l.766.702-1.077.697c-.303.195-.399.503-.24.778l.503.845c.128.217.423.349.734.349q.156-.001.311-.046c.407-.126.59-.463.423-.748l-.327-.549 1.189-.76c.367-.24.415-.646.112-.931l-.95-.875.415-1.445c.479-.029.95-.086 1.396-.183l.112 1.348c.024.2.16.383.383.503l.997.532-.782.868c-.223.246-.207.572.048.8l.798.72c.151.143.39.217.622.217a.97.97 0 0 0 .495-.12c.343-.194.406-.554.135-.8l-.51-.468.861-.954c.271-.298.168-.703-.231-.92l-1.237-.663-.135-1.537a6.8 6.8 0 0 0 1.571-.92l.08-.058c.87-.714 2.704-.937 4.164-.503.894.263 2.37.99 2.21 2.863-.191 2.126-1.603 6.052-2.632 8.915z"/><path fill="#fff" stroke="#fff" d="M17.681 5.833c-.414-.411-1.092-.657-1.802-.657h-1.293l1.508-2.068c.247-.343.295-.738.128-1.103-.168-.372-.527-.674-1.022-.852-1.005-.354-2.233-.074-2.744.629L9.528 5.788c-.359.491-.327 1.068.088 1.537.407.463 1.109.737 1.883.737h1.691l-1.444 2.823c-.183.36-.16.748.064 1.097.24.354.654.623 1.173.754q.336.086.686.086c.861 0 1.627-.383 1.922-.954l2.362-4.6c.247-.48.143-1.018-.271-1.435zm-1.228 1.04-2.361 4.6c-.08.154-.344.246-.583.183a.45.45 0 0 1-.255-.16.2.2 0 0 1-.008-.217L15 7.845c.112-.212.072-.446-.104-.629-.183-.183-.478-.297-.79-.297H11.5c-.224 0-.415-.074-.535-.2-.103-.126-.111-.274-.024-.4l2.928-4.011c.08-.103.24-.166.407-.166q.108 0 .216.034c.103.04.183.103.215.177a.21.21 0 0 1-.024.223L12.68 5.313c-.16.212-.144.469.031.675.176.205.48.331.814.331h2.354c.199 0 .39.069.502.183.112.108.144.246.072.371z"/></svg>